<svg width="1088" height="74" viewBox="0 0 1088 74" fill="none" xmlns="http://www.w3.org/2000/svg">
<path d="M13.224 47.944C13.224 48.9467 12.856 49.752 12.12 50.36C11.3733 50.9573 10.4667 51.256 9.4 51.256C8.45067 51.256 7.61333 50.9787 6.888 50.424C6.16267 49.8693 5.66133 49.112 5.384 48.152L6.792 47.576C6.888 47.9173 7.02133 48.2267 7.192 48.504C7.36267 48.7813 7.56 49.0213 7.784 49.224C8.01867 49.416 8.27467 49.5707 8.552 49.688C8.82933 49.7947 9.12267 49.848 9.432 49.848C10.104 49.848 10.6533 49.6773 11.08 49.336C11.5067 48.984 11.72 48.52 11.72 47.944C11.72 47.464 11.544 47.0533 11.192 46.712C10.8613 46.3813 10.2427 46.0613 9.336 45.752C8.41867 45.4213 7.848 45.1973 7.624 45.08C6.408 44.4613 5.8 43.5493 5.8 42.344C5.8 41.5013 6.136 40.7813 6.808 40.184C7.49067 39.5867 8.328 39.288 9.32 39.288C10.1947 39.288 10.952 39.512 11.592 39.96C12.232 40.3973 12.6587 40.9467 12.872 41.608L11.496 42.184C11.368 41.7573 11.112 41.4053 10.728 41.128C10.3547 40.84 9.896 40.696 9.352 40.696C8.776 40.696 8.29067 40.856 7.896 41.176C7.50133 41.4747 7.304 41.864 7.304 42.344C7.304 42.7387 7.45867 43.08 7.768 43.368C8.10933 43.656 8.85067 43.9973 9.992 44.392C11.1547 44.7867 11.9813 45.272 12.472 45.848C12.9733 46.4133 13.224 47.112 13.224 47.944ZM14.2918 47.08C14.2918 45.8747 14.6704 44.8773 15.4278 44.088C16.1958 43.2987 17.1611 42.904 18.3238 42.904C19.4864 42.904 20.4464 43.2987 21.2038 44.088C21.9718 44.8773 22.3558 45.8747 22.3558 47.08C22.3558 48.296 21.9718 49.2933 21.2038 50.072C20.4464 50.8613 19.4864 51.256 18.3238 51.256C17.1611 51.256 16.1958 50.8613 15.4278 50.072C14.6704 49.2827 14.2918 48.2853 14.2918 47.08ZM15.7638 47.08C15.7638 47.9227 16.0091 48.6053 16.4998 49.128C16.9904 49.6507 17.5984 49.912 18.3238 49.912C19.0491 49.912 19.6571 49.6507 20.1478 49.128C20.6384 48.6053 20.8838 47.9227 20.8838 47.08C20.8838 46.248 20.6384 45.5707 20.1478 45.048C19.6464 44.5147 19.0384 44.248 18.3238 44.248C17.6091 44.248 17.0011 44.5147 16.4998 45.048C16.0091 45.5707 15.7638 46.248 15.7638 47.08ZM27.2769 51.256C26.1142 51.256 25.1489 50.8613 24.3809 50.072C23.6235 49.2613 23.2449 48.264 23.2449 47.08C23.2449 45.8747 23.6235 44.8773 24.3809 44.088C25.1489 43.2987 26.1142 42.904 27.2769 42.904C28.0769 42.904 28.7755 43.1067 29.3729 43.512C29.9702 43.9067 30.4182 44.456 30.7169 45.16L29.3729 45.72C28.9569 44.7387 28.2262 44.248 27.1809 44.248C26.5089 44.248 25.9275 44.52 25.4369 45.064C24.9569 45.608 24.7169 46.28 24.7169 47.08C24.7169 47.88 24.9569 48.552 25.4369 49.096C25.9275 49.64 26.5089 49.912 27.1809 49.912C28.2582 49.912 29.0155 49.4213 29.4529 48.44L30.7649 49C30.4769 49.704 30.0235 50.2587 29.4049 50.664C28.7969 51.0587 28.0875 51.256 27.2769 51.256ZM33.9563 40.456C33.9563 40.744 33.8549 40.9893 33.6523 41.192C33.4496 41.3947 33.2043 41.496 32.9163 41.496C32.6283 41.496 32.3829 41.3947 32.1803 41.192C31.9776 40.9893 31.8763 40.744 31.8763 40.456C31.8763 40.168 31.9776 39.9227 32.1803 39.72C32.3829 39.5173 32.6283 39.416 32.9163 39.416C33.2043 39.416 33.4496 39.5173 33.6523 39.72C33.8549 39.9227 33.9563 40.168 33.9563 40.456ZM33.6523 43.16V51H32.1803V43.16H33.6523ZM36.5618 48.6C36.5618 48.984 36.7218 49.304 37.0418 49.56C37.3724 49.816 37.7564 49.944 38.1938 49.944C38.8124 49.944 39.3618 49.7147 39.8418 49.256C40.3324 48.7973 40.5778 48.2587 40.5778 47.64C40.1191 47.2773 39.4791 47.096 38.6578 47.096C38.0604 47.096 37.5591 47.24 37.1538 47.528C36.7591 47.816 36.5618 48.1733 36.5618 48.6ZM38.4658 42.904C39.5538 42.904 40.4124 43.1973 41.0418 43.784C41.6711 44.36 41.9858 45.1547 41.9858 46.168V51H40.5778V49.912H40.5138C39.9058 50.808 39.0951 51.256 38.0818 51.256C37.2178 51.256 36.4924 51 35.9058 50.488C35.3298 49.976 35.0418 49.336 35.0418 48.568C35.0418 47.7573 35.3458 47.112 35.9538 46.632C36.5724 46.152 37.3938 45.912 38.4178 45.912C39.2924 45.912 40.0124 46.072 40.5778 46.392V46.056C40.5778 45.544 40.3751 45.112 39.9698 44.76C39.5644 44.3973 39.0898 44.216 38.5458 44.216C37.7244 44.216 37.0738 44.5627 36.5938 45.256L35.2978 44.44C36.0124 43.416 37.0684 42.904 38.4658 42.904ZM45.118 39.544V51H43.646V39.544H45.118ZM52.1553 51H50.6833V39.544H52.1553L56.1393 46.52H56.2033L60.1873 39.544H61.6593V51H60.1873V44.2L60.2513 42.28H60.1873L56.6033 48.568H55.7393L52.1553 42.28H52.0913L52.1553 44.2V51ZM67.2285 51.256C66.0765 51.256 65.1272 50.8613 64.3805 50.072C63.6338 49.2827 63.2605 48.2853 63.2605 47.08C63.2605 45.8853 63.6232 44.8933 64.3485 44.104C65.0738 43.304 66.0018 42.904 67.1325 42.904C68.2952 42.904 69.2178 43.2827 69.9005 44.04C70.5938 44.7867 70.9405 45.8373 70.9405 47.192L70.9245 47.352H64.7645C64.7858 48.12 65.0418 48.7387 65.5325 49.208C66.0232 49.6773 66.6098 49.912 67.2925 49.912C68.2312 49.912 68.9672 49.4427 69.5005 48.504L70.8125 49.144C70.4605 49.8053 69.9698 50.3227 69.3405 50.696C68.7218 51.0693 68.0178 51.256 67.2285 51.256ZM64.8765 46.136H69.3725C69.3298 45.592 69.1058 45.144 68.7005 44.792C68.3058 44.4293 67.7725 44.248 67.1005 44.248C66.5458 44.248 66.0658 44.4187 65.6605 44.76C65.2658 45.1013 65.0045 45.56 64.8765 46.136ZM75.8848 49.912C76.6101 49.912 77.2021 49.6507 77.6608 49.128C78.1408 48.6053 78.3808 47.9227 78.3808 47.08C78.3808 46.2587 78.1408 45.5813 77.6608 45.048C77.1914 44.5147 76.5994 44.248 75.8848 44.248C75.1808 44.248 74.5888 44.5147 74.1088 45.048C73.6288 45.5813 73.3888 46.2587 73.3888 47.08C73.3888 47.912 73.6288 48.5893 74.1088 49.112C74.5888 49.6453 75.1808 49.912 75.8848 49.912ZM75.6448 51.256C74.6208 51.256 73.7408 50.8507 73.0048 50.04C72.2794 49.2187 71.9168 48.232 71.9168 47.08C71.9168 45.928 72.2794 44.9413 73.0048 44.12C73.7408 43.3093 74.6208 42.904 75.6448 42.904C76.2208 42.904 76.7434 43.0267 77.2128 43.272C77.6928 43.5173 78.0608 43.8427 78.3168 44.248H78.3808L78.3168 43.16V39.544H79.7888V51H78.3808V49.912H78.3168C78.0608 50.3173 77.6928 50.6427 77.2128 50.888C76.7434 51.1333 76.2208 51.256 75.6448 51.256ZM83.4875 40.456C83.4875 40.744 83.3862 40.9893 83.1835 41.192C82.9808 41.3947 82.7355 41.496 82.4475 41.496C82.1595 41.496 81.9142 41.3947 81.7115 41.192C81.5088 40.9893 81.4075 40.744 81.4075 40.456C81.4075 40.168 81.5088 39.9227 81.7115 39.72C81.9142 39.5173 82.1595 39.416 82.4475 39.416C82.7355 39.416 82.9808 39.5173 83.1835 39.72C83.3862 39.9227 83.4875 40.168 83.4875 40.456ZM83.1835 43.16V51H81.7115V43.16H83.1835ZM86.093 48.6C86.093 48.984 86.253 49.304 86.573 49.56C86.9037 49.816 87.2877 49.944 87.725 49.944C88.3437 49.944 88.893 49.7147 89.373 49.256C89.8637 48.7973 90.109 48.2587 90.109 47.64C89.6503 47.2773 89.0103 47.096 88.189 47.096C87.5917 47.096 87.0903 47.24 86.685 47.528C86.2903 47.816 86.093 48.1733 86.093 48.6ZM87.997 42.904C89.085 42.904 89.9437 43.1973 90.573 43.784C91.2023 44.36 91.517 45.1547 91.517 46.168V51H90.109V49.912H90.045C89.437 50.808 88.6263 51.256 87.613 51.256C86.749 51.256 86.0237 51 85.437 50.488C84.861 49.976 84.573 49.336 84.573 48.568C84.573 47.7573 84.877 47.112 85.485 46.632C86.1037 46.152 86.925 45.912 87.949 45.912C88.8237 45.912 89.5437 46.072 90.109 46.392V46.056C90.109 45.544 89.9063 45.112 89.501 44.76C89.0957 44.3973 88.621 44.216 88.077 44.216C87.2557 44.216 86.605 44.5627 86.125 45.256L84.829 44.44C85.5437 43.416 86.5997 42.904 87.997 42.904ZM98.4209 40.952V44.984H100.789C101.386 44.984 101.893 44.792 102.309 44.408C102.725 44.0133 102.933 43.528 102.933 42.952C102.933 42.4187 102.736 41.9547 102.341 41.56C101.957 41.1547 101.472 40.952 100.885 40.952H98.4209ZM98.4209 51H96.9489V39.544H100.853C101.845 39.544 102.688 39.8747 103.381 40.536C104.085 41.1867 104.437 41.992 104.437 42.952C104.437 43.7413 104.176 44.4453 103.653 45.064C103.141 45.672 102.49 46.0613 101.701 46.232L101.669 46.28L104.885 50.936V51H103.141L100.053 46.36H98.4209V51ZM109.307 51.256C108.155 51.256 107.205 50.8613 106.459 50.072C105.712 49.2827 105.339 48.2853 105.339 47.08C105.339 45.8853 105.701 44.8933 106.427 44.104C107.152 43.304 108.08 42.904 109.211 42.904C110.373 42.904 111.296 43.2827 111.979 44.04C112.672 44.7867 113.019 45.8373 113.019 47.192L113.003 47.352H106.843C106.864 48.12 107.12 48.7387 107.611 49.208C108.101 49.6773 108.688 49.912 109.371 49.912C110.309 49.912 111.045 49.4427 111.579 48.504L112.891 49.144C112.539 49.8053 112.048 50.3227 111.419 50.696C110.8 51.0693 110.096 51.256 109.307 51.256ZM106.955 46.136H111.451C111.408 45.592 111.184 45.144 110.779 44.792C110.384 44.4293 109.851 44.248 109.179 44.248C108.624 44.248 108.144 44.4187 107.739 44.76C107.344 45.1013 107.083 45.56 106.955 46.136ZM118.027 51.256C116.864 51.256 115.899 50.8613 115.131 50.072C114.374 49.2613 113.995 48.264 113.995 47.08C113.995 45.8747 114.374 44.8773 115.131 44.088C115.899 43.2987 116.864 42.904 118.027 42.904C118.827 42.904 119.526 43.1067 120.123 43.512C120.72 43.9067 121.168 44.456 121.467 45.16L120.123 45.72C119.707 44.7387 118.976 44.248 117.931 44.248C117.259 44.248 116.678 44.52 116.187 45.064C115.707 45.608 115.467 46.28 115.467 47.08C115.467 47.88 115.707 48.552 116.187 49.096C116.678 49.64 117.259 49.912 117.931 49.912C119.008 49.912 119.766 49.4213 120.203 48.44L121.515 49C121.227 49.704 120.774 50.2587 120.155 50.664C119.547 51.0587 118.838 51.256 118.027 51.256ZM124.196 51H122.724V43.16H124.132V44.44H124.196C124.345 44.024 124.649 43.672 125.108 43.384C125.577 43.0853 126.036 42.936 126.484 42.936C126.911 42.936 127.273 43 127.572 43.128L127.124 44.552C126.943 44.4773 126.655 44.44 126.26 44.44C125.705 44.44 125.22 44.664 124.804 45.112C124.399 45.56 124.196 46.0827 124.196 46.68V51ZM135.417 51H134.009V49.912H133.945C133.721 50.296 133.374 50.616 132.905 50.872C132.446 51.128 131.966 51.256 131.465 51.256C130.505 51.256 129.763 50.984 129.241 50.44C128.729 49.8853 128.473 49.1013 128.473 48.088V43.16H129.945V47.992C129.977 49.272 130.622 49.912 131.881 49.912C132.467 49.912 132.958 49.6773 133.353 49.208C133.747 48.728 133.945 48.1573 133.945 47.496V43.16H135.417V51ZM139.113 40.456C139.113 40.744 139.011 40.9893 138.809 41.192C138.606 41.3947 138.361 41.496 138.073 41.496C137.785 41.496 137.539 41.3947 137.337 41.192C137.134 40.9893 137.033 40.744 137.033 40.456C137.033 40.168 137.134 39.9227 137.337 39.72C137.539 39.5173 137.785 39.416 138.073 39.416C138.361 39.416 138.606 39.5173 138.809 39.72C139.011 39.9227 139.113 40.168 139.113 40.456ZM138.809 43.16V51H137.337V43.16H138.809ZM143.75 51.128C143.11 51.128 142.577 50.9307 142.15 50.536C141.734 50.1413 141.521 49.592 141.51 48.888V44.504H140.134V43.16H141.51V40.76H142.982V43.16H144.902V44.504H142.982V48.408C142.982 48.9307 143.083 49.288 143.286 49.48C143.489 49.6613 143.718 49.752 143.974 49.752C144.091 49.752 144.203 49.7413 144.31 49.72C144.427 49.688 144.534 49.6507 144.63 49.608L145.094 50.92C144.71 51.0587 144.262 51.128 143.75 51.128ZM13.224 66.944C13.224 67.9467 12.856 68.752 12.12 69.36C11.3733 69.9573 10.4667 70.256 9.4 70.256C8.45067 70.256 7.61333 69.9787 6.888 69.424C6.16267 68.8693 5.66133 68.112 5.384 67.152L6.792 66.576C6.888 66.9173 7.02133 67.2267 7.192 67.504C7.36267 67.7813 7.56 68.0213 7.784 68.224C8.01867 68.416 8.27467 68.5707 8.552 68.688C8.82933 68.7947 9.12267 68.848 9.432 68.848C10.104 68.848 10.6533 68.6773 11.08 68.336C11.5067 67.984 11.72 67.52 11.72 66.944C11.72 66.464 11.544 66.0533 11.192 65.712C10.8613 65.3813 10.2427 65.0613 9.336 64.752C8.41867 64.4213 7.848 64.1973 7.624 64.08C6.408 63.4613 5.8 62.5493 5.8 61.344C5.8 60.5013 6.136 59.7813 6.808 59.184C7.49067 58.5867 8.328 58.288 9.32 58.288C10.1947 58.288 10.952 58.512 11.592 58.96C12.232 59.3973 12.6587 59.9467 12.872 60.608L11.496 61.184C11.368 60.7573 11.112 60.4053 10.728 60.128C10.3547 59.84 9.896 59.696 9.352 59.696C8.776 59.696 8.29067 59.856 7.896 60.176C7.50133 60.4747 7.304 60.864 7.304 61.344C7.304 61.7387 7.45867 62.08 7.768 62.368C8.10933 62.656 8.85067 62.9973 9.992 63.392C11.1547 63.7867 11.9813 64.272 12.472 64.848C12.9733 65.4133 13.224 66.112 13.224 66.944ZM18.2598 70.256C17.1078 70.256 16.1584 69.8613 15.4118 69.072C14.6651 68.2827 14.2918 67.2853 14.2918 66.08C14.2918 64.8853 14.6544 63.8933 15.3798 63.104C16.1051 62.304 17.0331 61.904 18.1638 61.904C19.3264 61.904 20.2491 62.2827 20.9318 63.04C21.6251 63.7867 21.9718 64.8373 21.9718 66.192L21.9558 66.352H15.7958C15.8171 67.12 16.0731 67.7387 16.5638 68.208C17.0544 68.6773 17.6411 68.912 18.3238 68.912C19.2624 68.912 19.9984 68.4427 20.5318 67.504L21.8438 68.144C21.4918 68.8053 21.0011 69.3227 20.3718 69.696C19.7531 70.0693 19.0491 70.256 18.2598 70.256ZM15.9078 65.136H20.4038C20.3611 64.592 20.1371 64.144 19.7318 63.792C19.3371 63.4293 18.8038 63.248 18.1318 63.248C17.5771 63.248 17.0971 63.4187 16.6918 63.76C16.2971 64.1013 16.0358 64.56 15.9078 65.136ZM27.1579 68.912C27.8619 68.912 28.4539 68.6453 28.9339 68.112C29.4139 67.5893 29.6539 66.912 29.6539 66.08C29.6539 65.2587 29.4139 64.5813 28.9339 64.048C28.4539 63.5147 27.8619 63.248 27.1579 63.248C26.4432 63.248 25.8459 63.5147 25.3659 64.048C24.8965 64.5813 24.6619 65.2587 24.6619 66.08C24.6619 66.912 24.8965 67.5947 25.3659 68.128C25.8459 68.6507 26.4432 68.912 27.1579 68.912ZM27.3979 70.256C26.8219 70.256 26.2939 70.1333 25.8139 69.888C25.3445 69.6427 24.9819 69.3173 24.7259 68.912H24.6619L24.7259 70V73.456H23.2539V62.16H24.6619V63.248H24.7259C24.9819 62.8427 25.3445 62.5173 25.8139 62.272C26.2939 62.0267 26.8219 61.904 27.3979 61.904C28.4325 61.904 29.3072 62.3093 30.0219 63.12C30.7579 63.9413 31.1259 64.928 31.1259 66.08C31.1259 67.2427 30.7579 68.2293 30.0219 69.04C29.3072 69.8507 28.4325 70.256 27.3979 70.256ZM42.7098 68.592V70H35.7338V68.528L38.5658 65.664C39.5151 64.6933 40.1711 63.968 40.5338 63.488C40.8964 62.9973 41.0778 62.4853 41.0778 61.952C41.0778 61.472 40.8911 61.0613 40.5178 60.72C40.1444 60.3787 39.6644 60.208 39.0778 60.208C38.5764 60.208 38.1444 60.3573 37.7818 60.656C37.4191 60.9547 37.1844 61.3173 37.0778 61.744L35.7338 61.2C35.9471 60.528 36.3578 59.9627 36.9658 59.504C37.5738 59.0347 38.2884 58.8 39.1098 58.8C40.1018 58.8 40.9284 59.104 41.5898 59.712C42.2511 60.32 42.5818 61.0667 42.5818 61.952C42.5818 63.008 42.0004 64.1493 40.8378 65.376L37.6378 68.592H42.7098ZM51.2623 66.896C51.2623 67.856 50.9049 68.656 50.1903 69.296C49.4863 69.936 48.6116 70.256 47.5663 70.256C46.7449 70.256 46.0036 70.0107 45.3423 69.52C44.6703 69.008 44.2169 68.3413 43.9823 67.52L45.3263 66.96C45.4969 67.568 45.7743 68.0373 46.1583 68.368C46.5529 68.688 47.0223 68.848 47.5663 68.848C48.1636 68.848 48.6809 68.6613 49.1183 68.288C49.5449 67.904 49.7583 67.44 49.7583 66.896C49.7583 66.352 49.5343 65.8933 49.0863 65.52C48.6489 65.1467 48.1209 64.96 47.5023 64.96H46.5583V63.584H47.3903C47.9769 63.584 48.4569 63.424 48.8303 63.104C49.2036 62.7733 49.3903 62.3467 49.3903 61.824C49.3903 61.344 49.2143 60.9547 48.8623 60.656C48.5103 60.3573 48.0463 60.208 47.4703 60.208C46.5423 60.208 45.9076 60.6827 45.5663 61.632L44.2063 61.056C44.4516 60.384 44.8623 59.84 45.4383 59.424C46.0143 59.008 46.6916 58.8 47.4703 58.8C48.4409 58.8 49.2569 59.088 49.9183 59.664C50.5689 60.2187 50.8943 60.9387 50.8943 61.824C50.8943 62.88 50.4036 63.664 49.4223 64.176V64.24C49.9983 64.4853 50.4463 64.8427 50.7663 65.312C51.0969 65.7813 51.2623 66.3093 51.2623 66.896Z" fill="white"/>
<path d="M291.624 51H290.152V39.544H291.624L295.608 46.52H295.672L299.656 39.544H301.128V51H299.656V44.2L299.72 42.28H299.656L296.072 48.568H295.208L291.624 42.28H291.56L291.624 44.2V51ZM304.015 48.6C304.015 48.984 304.175 49.304 304.495 49.56C304.826 49.816 305.21 49.944 305.647 49.944C306.266 49.944 306.815 49.7147 307.295 49.256C307.786 48.7973 308.031 48.2587 308.031 47.64C307.572 47.2773 306.932 47.096 306.111 47.096C305.514 47.096 305.012 47.24 304.607 47.528C304.212 47.816 304.015 48.1733 304.015 48.6ZM305.919 42.904C307.007 42.904 307.866 43.1973 308.495 43.784C309.124 44.36 309.439 45.1547 309.439 46.168V51H308.031V49.912H307.967C307.359 50.808 306.548 51.256 305.535 51.256C304.671 51.256 303.946 51 303.359 50.488C302.783 49.976 302.495 49.336 302.495 48.568C302.495 47.7573 302.799 47.112 303.407 46.632C304.026 46.152 304.847 45.912 305.871 45.912C306.746 45.912 307.466 46.072 308.031 46.392V46.056C308.031 45.544 307.828 45.112 307.423 44.76C307.018 44.3973 306.543 44.216 305.999 44.216C305.178 44.216 304.527 44.5627 304.047 45.256L302.751 44.44C303.466 43.416 304.522 42.904 305.919 42.904ZM311.099 43.16H312.507V44.248H312.571C312.795 43.864 313.136 43.544 313.595 43.288C314.064 43.032 314.55 42.904 315.051 42.904C316.011 42.904 316.747 43.1813 317.259 43.736C317.782 44.28 318.043 45.0587 318.043 46.072V51H316.571V46.168C316.539 44.888 315.894 44.248 314.635 44.248C314.048 44.248 313.558 44.488 313.163 44.968C312.768 45.4373 312.571 46.0027 312.571 46.664V51H311.099V43.16ZM320.765 48.6C320.765 48.984 320.925 49.304 321.245 49.56C321.576 49.816 321.96 49.944 322.397 49.944C323.016 49.944 323.565 49.7147 324.045 49.256C324.536 48.7973 324.781 48.2587 324.781 47.64C324.322 47.2773 323.682 47.096 322.861 47.096C322.264 47.096 321.762 47.24 321.357 47.528C320.962 47.816 320.765 48.1733 320.765 48.6ZM322.669 42.904C323.757 42.904 324.616 43.1973 325.245 43.784C325.874 44.36 326.189 45.1547 326.189 46.168V51H324.781V49.912H324.717C324.109 50.808 323.298 51.256 322.285 51.256C321.421 51.256 320.696 51 320.109 50.488C319.533 49.976 319.245 49.336 319.245 48.568C319.245 47.7573 319.549 47.112 320.157 46.632C320.776 46.152 321.597 45.912 322.621 45.912C323.496 45.912 324.216 46.072 324.781 46.392V46.056C324.781 45.544 324.578 45.112 324.173 44.76C323.768 44.3973 323.293 44.216 322.749 44.216C321.928 44.216 321.277 44.5627 320.797 45.256L319.501 44.44C320.216 43.416 321.272 42.904 322.669 42.904ZM331.291 49.912C332.016 49.912 332.608 49.6507 333.067 49.128C333.547 48.6053 333.787 47.9227 333.787 47.08C333.787 46.2587 333.547 45.5813 333.067 45.048C332.598 44.5147 332.006 44.248 331.291 44.248C330.587 44.248 329.995 44.5147 329.515 45.048C329.035 45.5813 328.795 46.2587 328.795 47.08C328.795 47.912 329.035 48.5893 329.515 49.112C329.995 49.6453 330.587 49.912 331.291 49.912ZM331.243 54.712C330.806 54.712 330.395 54.6533 330.011 54.536C329.627 54.4293 329.275 54.2747 328.955 54.072C328.646 53.8693 328.379 53.6293 328.155 53.352C327.931 53.0747 327.76 52.7653 327.643 52.424L329.035 51.848C329.195 52.3067 329.472 52.6747 329.867 52.952C330.262 53.2293 330.72 53.368 331.243 53.368C332.043 53.368 332.667 53.128 333.115 52.648C333.563 52.168 333.787 51.5067 333.787 50.664V49.912H333.723C333.446 50.328 333.067 50.6587 332.587 50.904C332.118 51.1387 331.606 51.256 331.051 51.256C330.027 51.256 329.147 50.856 328.411 50.056C327.686 49.2347 327.323 48.2427 327.323 47.08C327.323 45.9173 327.686 44.9307 328.411 44.12C329.147 43.3093 330.027 42.904 331.051 42.904C331.606 42.904 332.118 43.0267 332.587 43.272C333.067 43.5067 333.446 43.832 333.723 44.248H333.787V43.16H335.195V50.664C335.195 51.9227 334.838 52.9093 334.123 53.624C333.398 54.3493 332.438 54.712 331.243 54.712ZM340.432 51.256C339.28 51.256 338.33 50.8613 337.584 50.072C336.837 49.2827 336.464 48.2853 336.464 47.08C336.464 45.8853 336.826 44.8933 337.552 44.104C338.277 43.304 339.205 42.904 340.336 42.904C341.498 42.904 342.421 43.2827 343.104 44.04C343.797 44.7867 344.144 45.8373 344.144 47.192L344.128 47.352H337.968C337.989 48.12 338.245 48.7387 338.736 49.208C339.226 49.6773 339.813 49.912 340.496 49.912C341.434 49.912 342.17 49.4427 342.704 48.504L344.016 49.144C343.664 49.8053 343.173 50.3227 342.544 50.696C341.925 51.0693 341.221 51.256 340.432 51.256ZM338.08 46.136H342.576C342.533 45.592 342.309 45.144 341.904 44.792C341.509 44.4293 340.976 44.248 340.304 44.248C339.749 44.248 339.269 44.4187 338.864 44.76C338.469 45.1013 338.208 45.56 338.08 46.136ZM346.962 51H345.49V43.16H346.898V44.248H346.962C347.186 43.864 347.527 43.544 347.986 43.288C348.455 43.032 348.919 42.904 349.378 42.904C349.954 42.904 350.46 43.0373 350.898 43.304C351.335 43.5707 351.655 43.9387 351.858 44.408C352.508 43.4053 353.41 42.904 354.562 42.904C355.468 42.904 356.167 43.1813 356.658 43.736C357.148 44.2907 357.394 45.08 357.394 46.104V51H355.922V46.328C355.922 45.592 355.788 45.064 355.522 44.744C355.255 44.4133 354.807 44.248 354.178 44.248C353.612 44.248 353.138 44.488 352.754 44.968C352.37 45.448 352.178 46.0133 352.178 46.664V51H350.706V46.328C350.706 45.592 350.572 45.064 350.306 44.744C350.039 44.4133 349.591 44.248 348.962 44.248C348.396 44.248 347.922 44.488 347.538 44.968C347.154 45.448 346.962 46.0133 346.962 46.664V51ZM362.635 51.256C361.483 51.256 360.533 50.8613 359.787 50.072C359.04 49.2827 358.667 48.2853 358.667 47.08C358.667 45.8853 359.029 44.8933 359.755 44.104C360.48 43.304 361.408 42.904 362.539 42.904C363.701 42.904 364.624 43.2827 365.307 44.04C366 44.7867 366.347 45.8373 366.347 47.192L366.331 47.352H360.171C360.192 48.12 360.448 48.7387 360.939 49.208C361.429 49.6773 362.016 49.912 362.699 49.912C363.637 49.912 364.373 49.4427 364.907 48.504L366.219 49.144C365.867 49.8053 365.376 50.3227 364.747 50.696C364.128 51.0693 363.424 51.256 362.635 51.256ZM360.283 46.136H364.779C364.736 45.592 364.512 45.144 364.107 44.792C363.712 44.4293 363.179 44.248 362.507 44.248C361.952 44.248 361.472 44.4187 361.067 44.76C360.672 45.1013 360.411 45.56 360.283 46.136ZM367.693 43.16H369.101V44.248H369.165C369.389 43.864 369.73 43.544 370.189 43.288C370.658 43.032 371.144 42.904 371.645 42.904C372.605 42.904 373.341 43.1813 373.853 43.736C374.376 44.28 374.637 45.0587 374.637 46.072V51H373.165V46.168C373.133 44.888 372.488 44.248 371.229 44.248C370.642 44.248 370.152 44.488 369.757 44.968C369.362 45.4373 369.165 46.0027 369.165 46.664V51H367.693V43.16ZM379.062 51.128C378.423 51.128 377.889 50.9307 377.463 50.536C377.047 50.1413 376.833 49.592 376.823 48.888V44.504H375.447V43.16H376.823V40.76H378.295V43.16H380.215V44.504H378.295V48.408C378.295 48.9307 378.396 49.288 378.599 49.48C378.801 49.6613 379.031 49.752 379.286 49.752C379.404 49.752 379.516 49.7413 379.623 49.72C379.74 49.688 379.847 49.6507 379.943 49.608L380.407 50.92C380.023 51.0587 379.575 51.128 379.062 51.128ZM392.458 49.016L393.53 50.424L392.426 51.256L391.642 50.216C390.864 50.9093 389.978 51.256 388.986 51.256C387.824 51.256 386.837 50.8667 386.026 50.088C385.216 49.3093 384.81 48.3493 384.81 47.208C384.81 46.536 384.986 45.9013 385.338 45.304C385.701 44.696 386.186 44.2053 386.794 43.832C386.24 43.1173 385.962 42.4827 385.962 41.928C385.962 41.2027 386.234 40.584 386.778 40.072C387.322 39.5493 387.973 39.288 388.73 39.288C389.338 39.288 389.866 39.464 390.314 39.816C390.762 40.1573 391.088 40.6267 391.29 41.224L390.026 41.896C389.728 41.096 389.296 40.696 388.73 40.696C388.357 40.696 388.048 40.808 387.802 41.032C387.568 41.256 387.45 41.5547 387.45 41.928C387.45 42.2907 387.573 42.632 387.818 42.952L391.61 47.912L392.634 46.2L393.786 46.904L392.458 49.016ZM386.154 47.208C386.154 47.976 386.426 48.6213 386.97 49.144C387.514 49.656 388.186 49.912 388.986 49.912C389.744 49.912 390.357 49.656 390.826 49.144L387.61 44.904C387.162 45.1493 386.805 45.48 386.538 45.896C386.282 46.312 386.154 46.7493 386.154 47.208ZM400.265 51H398.793V39.544H400.265L404.249 46.52H404.313L408.297 39.544H409.769V51H408.297V44.2L408.361 42.28H408.297L404.713 48.568H403.849L400.265 42.28H400.201L400.265 44.2V51ZM412.656 48.6C412.656 48.984 412.816 49.304 413.136 49.56C413.466 49.816 413.85 49.944 414.288 49.944C414.906 49.944 415.456 49.7147 415.936 49.256C416.426 48.7973 416.672 48.2587 416.672 47.64C416.213 47.2773 415.573 47.096 414.752 47.096C414.154 47.096 413.653 47.24 413.248 47.528C412.853 47.816 412.656 48.1733 412.656 48.6ZM414.56 42.904C415.648 42.904 416.506 43.1973 417.136 43.784C417.765 44.36 418.08 45.1547 418.08 46.168V51H416.672V49.912H416.608C416 50.808 415.189 51.256 414.176 51.256C413.312 51.256 412.586 51 412 50.488C411.424 49.976 411.136 49.336 411.136 48.568C411.136 47.7573 411.44 47.112 412.048 46.632C412.666 46.152 413.488 45.912 414.512 45.912C415.386 45.912 416.106 46.072 416.672 46.392V46.056C416.672 45.544 416.469 45.112 416.064 44.76C415.658 44.3973 415.184 44.216 414.64 44.216C413.818 44.216 413.168 44.5627 412.688 45.256L411.392 44.44C412.106 43.416 413.162 42.904 414.56 42.904ZM421.212 51H419.74V43.16H421.148V44.44H421.212C421.361 44.024 421.665 43.672 422.124 43.384C422.593 43.0853 423.052 42.936 423.5 42.936C423.926 42.936 424.289 43 424.588 43.128L424.14 44.552C423.958 44.4773 423.67 44.44 423.276 44.44C422.721 44.44 422.236 44.664 421.82 45.112C421.414 45.56 421.212 46.0827 421.212 46.68V51ZM432.526 51H430.75L428.302 47.304L427.102 48.488V51H425.63V39.544H427.102V46.6L430.494 43.16H432.382V43.224L429.326 46.264L432.526 50.936V51ZM436.65 51.256C435.498 51.256 434.549 50.8613 433.802 50.072C433.056 49.2827 432.682 48.2853 432.682 47.08C432.682 45.8853 433.045 44.8933 433.77 44.104C434.496 43.304 435.424 42.904 436.554 42.904C437.717 42.904 438.64 43.2827 439.322 44.04C440.016 44.7867 440.362 45.8373 440.362 47.192L440.346 47.352H434.186C434.208 48.12 434.464 48.7387 434.954 49.208C435.445 49.6773 436.032 49.912 436.714 49.912C437.653 49.912 438.389 49.4427 438.922 48.504L440.234 49.144C439.882 49.8053 439.392 50.3227 438.762 50.696C438.144 51.0693 437.44 51.256 436.65 51.256ZM434.298 46.136H438.794C438.752 45.592 438.528 45.144 438.122 44.792C437.728 44.4293 437.194 44.248 436.522 44.248C435.968 44.248 435.488 44.4187 435.082 44.76C434.688 45.1013 434.426 45.56 434.298 46.136ZM444.578 51.128C443.938 51.128 443.405 50.9307 442.978 50.536C442.562 50.1413 442.349 49.592 442.338 48.888V44.504H440.962V43.16H442.338V40.76H443.81V43.16H445.73V44.504H443.81V48.408C443.81 48.9307 443.911 49.288 444.114 49.48C444.317 49.6613 444.546 49.752 444.802 49.752C444.919 49.752 445.031 49.7413 445.138 49.72C445.255 49.688 445.362 49.6507 445.458 49.608L445.922 50.92C445.538 51.0587 445.09 51.128 444.578 51.128ZM449.113 40.456C449.113 40.744 449.011 40.9893 448.809 41.192C448.606 41.3947 448.361 41.496 448.073 41.496C447.785 41.496 447.539 41.3947 447.337 41.192C447.134 40.9893 447.033 40.744 447.033 40.456C447.033 40.168 447.134 39.9227 447.337 39.72C447.539 39.5173 447.785 39.416 448.073 39.416C448.361 39.416 448.606 39.5173 448.809 39.72C449.011 39.9227 449.113 40.168 449.113 40.456ZM448.809 43.16V51H447.337V43.16H448.809ZM450.724 43.16H452.132V44.248H452.196C452.42 43.864 452.761 43.544 453.22 43.288C453.689 43.032 454.175 42.904 454.676 42.904C455.636 42.904 456.372 43.1813 456.884 43.736C457.407 44.28 457.668 45.0587 457.668 46.072V51H456.196V46.168C456.164 44.888 455.519 44.248 454.26 44.248C453.673 44.248 453.183 44.488 452.788 44.968C452.393 45.4373 452.196 46.0027 452.196 46.664V51H450.724V43.16ZM462.838 49.912C463.563 49.912 464.155 49.6507 464.614 49.128C465.094 48.6053 465.334 47.9227 465.334 47.08C465.334 46.2587 465.094 45.5813 464.614 45.048C464.145 44.5147 463.553 44.248 462.838 44.248C462.134 44.248 461.542 44.5147 461.062 45.048C460.582 45.5813 460.342 46.2587 460.342 47.08C460.342 47.912 460.582 48.5893 461.062 49.112C461.542 49.6453 462.134 49.912 462.838 49.912ZM462.79 54.712C462.353 54.712 461.942 54.6533 461.558 54.536C461.174 54.4293 460.822 54.2747 460.502 54.072C460.193 53.8693 459.926 53.6293 459.702 53.352C459.478 53.0747 459.307 52.7653 459.19 52.424L460.582 51.848C460.742 52.3067 461.019 52.6747 461.414 52.952C461.809 53.2293 462.267 53.368 462.79 53.368C463.59 53.368 464.214 53.128 464.662 52.648C465.11 52.168 465.334 51.5067 465.334 50.664V49.912H465.27C464.993 50.328 464.614 50.6587 464.134 50.904C463.665 51.1387 463.153 51.256 462.598 51.256C461.574 51.256 460.694 50.856 459.958 50.056C459.233 49.2347 458.87 48.2427 458.87 47.08C458.87 45.9173 459.233 44.9307 459.958 44.12C460.694 43.3093 461.574 42.904 462.598 42.904C463.153 42.904 463.665 43.0267 464.134 43.272C464.614 43.5067 464.993 43.832 465.27 44.248H465.334V43.16H466.742V50.664C466.742 51.9227 466.385 52.9093 465.67 53.624C464.945 54.3493 463.985 54.712 462.79 54.712ZM469.033 52.792L468.345 52.344L469.209 51C468.985 50.9573 468.793 50.8453 468.633 50.664C468.483 50.4827 468.409 50.264 468.409 50.008C468.409 49.6987 468.515 49.4427 468.729 49.24C468.942 49.0267 469.198 48.92 469.497 48.92C469.806 48.92 470.062 49.0267 470.265 49.24C470.478 49.4427 470.585 49.6987 470.585 50.008C470.585 50.296 470.478 50.6107 470.265 50.952L469.033 52.792ZM477.499 51H476.027V39.544H477.499L481.483 46.52H481.547L485.531 39.544H487.003V51H485.531V44.2L485.595 42.28H485.531L481.947 48.568H481.083L477.499 42.28H477.435L477.499 44.2V51ZM492.572 51.256C491.42 51.256 490.471 50.8613 489.724 50.072C488.978 49.2827 488.604 48.2853 488.604 47.08C488.604 45.8853 488.967 44.8933 489.692 44.104C490.418 43.304 491.346 42.904 492.476 42.904C493.639 42.904 494.562 43.2827 495.244 44.04C495.938 44.7867 496.284 45.8373 496.284 47.192L496.268 47.352H490.108C490.13 48.12 490.386 48.7387 490.876 49.208C491.367 49.6773 491.954 49.912 492.636 49.912C493.575 49.912 494.311 49.4427 494.844 48.504L496.156 49.144C495.804 49.8053 495.314 50.3227 494.684 50.696C494.066 51.0693 493.362 51.256 492.572 51.256ZM490.22 46.136H494.716C494.674 45.592 494.45 45.144 494.044 44.792C493.65 44.4293 493.116 44.248 492.444 44.248C491.89 44.248 491.41 44.4187 491.004 44.76C490.61 45.1013 490.348 45.56 490.22 46.136ZM499.102 51H497.63V43.16H499.038V44.248H499.102C499.326 43.864 499.668 43.544 500.126 43.288C500.596 43.032 501.06 42.904 501.518 42.904C502.094 42.904 502.601 43.0373 503.038 43.304C503.476 43.5707 503.796 43.9387 503.998 44.408C504.649 43.4053 505.55 42.904 506.702 42.904C507.609 42.904 508.308 43.1813 508.798 43.736C509.289 44.2907 509.534 45.08 509.534 46.104V51H508.062V46.328C508.062 45.592 507.929 45.064 507.662 44.744C507.396 44.4133 506.948 44.248 506.318 44.248C505.753 44.248 505.278 44.488 504.894 44.968C504.51 45.448 504.318 46.0133 504.318 46.664V51H502.846V46.328C502.846 45.592 502.713 45.064 502.446 44.744C502.18 44.4133 501.732 44.248 501.102 44.248C500.537 44.248 500.062 44.488 499.678 44.968C499.294 45.448 499.102 46.0133 499.102 46.664V51ZM515.399 51.256C514.823 51.256 514.295 51.1333 513.815 50.888C513.346 50.6427 512.983 50.3173 512.727 49.912H512.663V51H511.255V39.544H512.727V43.16L512.663 44.248H512.727C512.983 43.8427 513.346 43.5173 513.815 43.272C514.295 43.0267 514.823 42.904 515.399 42.904C516.434 42.904 517.309 43.3093 518.023 44.12C518.759 44.9413 519.127 45.928 519.127 47.08C519.127 48.2427 518.759 49.2293 518.023 50.04C517.309 50.8507 516.434 51.256 515.399 51.256ZM515.159 49.912C515.863 49.912 516.455 49.6453 516.935 49.112C517.415 48.5893 517.655 47.912 517.655 47.08C517.655 46.2587 517.415 45.5813 516.935 45.048C516.455 44.5147 515.863 44.248 515.159 44.248C514.445 44.248 513.847 44.5147 513.367 45.048C512.898 45.5813 512.663 46.2587 512.663 47.08C512.663 47.912 512.898 48.5947 513.367 49.128C513.847 49.6507 514.445 49.912 515.159 49.912ZM523.994 51.256C522.842 51.256 521.893 50.8613 521.146 50.072C520.399 49.2827 520.026 48.2853 520.026 47.08C520.026 45.8853 520.389 44.8933 521.114 44.104C521.839 43.304 522.767 42.904 523.898 42.904C525.061 42.904 525.983 43.2827 526.666 44.04C527.359 44.7867 527.706 45.8373 527.706 47.192L527.69 47.352H521.53C521.551 48.12 521.807 48.7387 522.298 49.208C522.789 49.6773 523.375 49.912 524.058 49.912C524.997 49.912 525.733 49.4427 526.266 48.504L527.578 49.144C527.226 49.8053 526.735 50.3227 526.106 50.696C525.487 51.0693 524.783 51.256 523.994 51.256ZM521.642 46.136H526.138C526.095 45.592 525.871 45.144 525.466 44.792C525.071 44.4293 524.538 44.248 523.866 44.248C523.311 44.248 522.831 44.4187 522.426 44.76C522.031 45.1013 521.77 45.56 521.642 46.136ZM530.524 51H529.052V43.16H530.46V44.44H530.524C530.674 44.024 530.978 43.672 531.436 43.384C531.906 43.0853 532.364 42.936 532.812 42.936C533.239 42.936 533.602 43 533.9 43.128L533.452 44.552C533.271 44.4773 532.983 44.44 532.588 44.44C532.034 44.44 531.548 44.664 531.132 45.112C530.727 45.56 530.524 46.0827 530.524 46.68V51ZM292.952 70.256C292.088 70.256 291.341 70.0213 290.712 69.552C290.083 69.0827 289.64 68.432 289.384 67.6L290.776 67.024C291.139 68.24 291.864 68.848 292.952 68.848C293.549 68.848 294.029 68.64 294.392 68.224C294.765 67.7973 294.952 67.248 294.952 66.576V58.544H296.424V66.448C296.424 67.632 296.109 68.5653 295.48 69.248C294.861 69.92 294.019 70.256 292.952 70.256ZM305.01 70H303.602V68.912H303.538C303.314 69.296 302.968 69.616 302.498 69.872C302.04 70.128 301.56 70.256 301.058 70.256C300.098 70.256 299.357 69.984 298.834 69.44C298.322 68.8853 298.066 68.1013 298.066 67.088V62.16H299.538V66.992C299.57 68.272 300.216 68.912 301.474 68.912C302.061 68.912 302.552 68.6773 302.946 68.208C303.341 67.728 303.538 67.1573 303.538 66.496V62.16H305.01V70ZM308.274 58.544V70H306.802V58.544H308.274ZM317.076 62.16L312.164 73.456H310.644L312.468 69.504L309.236 62.16H310.836L313.172 67.792H313.204L315.476 62.16H317.076ZM328.272 68.592V70H321.296V68.528L324.128 65.664C325.078 64.6933 325.734 63.968 326.096 63.488C326.459 62.9973 326.64 62.4853 326.64 61.952C326.64 61.472 326.454 61.0613 326.08 60.72C325.707 60.3787 325.227 60.208 324.64 60.208C324.139 60.208 323.707 60.3573 323.344 60.656C322.982 60.9547 322.747 61.3173 322.64 61.744L321.296 61.2C321.51 60.528 321.92 59.9627 322.528 59.504C323.136 59.0347 323.851 58.8 324.672 58.8C325.664 58.8 326.491 59.104 327.152 59.712C327.814 60.32 328.144 61.0667 328.144 61.952C328.144 63.008 327.563 64.1493 326.4 65.376L323.2 68.592H328.272ZM336.281 67.696V70H334.809V67.696H329.609V66.576L334.681 59.056H336.281V66.32H337.689V67.696H336.281ZM331.273 66.32H334.809V61.216H334.745L331.273 66.32Z" fill="white"/>
<path d="M682.136 51.256C680.867 51.256 679.843 50.84 679.064 50.008C678.285 49.1867 677.896 48.0987 677.896 46.744V39.544H679.368V46.808C679.368 47.7467 679.613 48.488 680.104 49.032C680.595 49.576 681.272 49.848 682.136 49.848C683 49.848 683.677 49.576 684.168 49.032C684.659 48.488 684.904 47.7467 684.904 46.808V39.544H686.376V46.744C686.376 48.1307 685.992 49.2293 685.224 50.04C684.456 50.8507 683.427 51.256 682.136 51.256ZM690.066 40.456C690.066 40.744 689.964 40.9893 689.762 41.192C689.559 41.3947 689.314 41.496 689.026 41.496C688.738 41.496 688.492 41.3947 688.29 41.192C688.087 40.9893 687.986 40.744 687.986 40.456C687.986 40.168 688.087 39.9227 688.29 39.72C688.492 39.5173 688.738 39.416 689.026 39.416C689.314 39.416 689.559 39.5173 689.762 39.72C689.964 39.9227 690.066 40.168 690.066 40.456ZM689.762 43.16V51H688.29V43.16H689.762ZM700.857 39.544L696.105 51H694.729L699.481 39.544H700.857ZM709.62 51.256C708.351 51.256 707.327 50.84 706.548 50.008C705.77 49.1867 705.38 48.0987 705.38 46.744V39.544H706.852V46.808C706.852 47.7467 707.098 48.488 707.588 49.032C708.079 49.576 708.756 49.848 709.62 49.848C710.484 49.848 711.162 49.576 711.652 49.032C712.143 48.488 712.388 47.7467 712.388 46.808V39.544H713.86V46.744C713.86 48.1307 713.476 49.2293 712.708 50.04C711.94 50.8507 710.911 51.256 709.62 51.256ZM719.374 47.016L722.174 51H720.446L718.51 48.104L716.606 51H714.878L717.646 47.016L714.942 43.16H716.606L718.542 45.928L720.382 43.16H722.11L719.374 47.016ZM728.857 39.544L724.105 51H722.729L727.481 39.544H728.857ZM733.949 51V39.544H737.453C739.202 39.544 740.605 40.072 741.661 41.128C742.728 42.184 743.261 43.5653 743.261 45.272C743.261 46.9893 742.728 48.376 741.661 49.432C740.605 50.4773 739.202 51 737.453 51H733.949ZM735.421 40.952V49.592H737.453C738.786 49.592 739.837 49.2133 740.605 48.456C741.373 47.688 741.757 46.6267 741.757 45.272C741.757 43.928 741.373 42.872 740.605 42.104C739.837 41.336 738.786 40.952 737.453 40.952H735.421ZM748.041 51.256C746.889 51.256 745.94 50.8613 745.193 50.072C744.446 49.2827 744.073 48.2853 744.073 47.08C744.073 45.8853 744.436 44.8933 745.161 44.104C745.886 43.304 746.814 42.904 747.945 42.904C749.108 42.904 750.03 43.2827 750.713 44.04C751.406 44.7867 751.753 45.8373 751.753 47.192L751.737 47.352H745.577C745.598 48.12 745.854 48.7387 746.345 49.208C746.836 49.6773 747.422 49.912 748.105 49.912C749.044 49.912 749.78 49.4427 750.313 48.504L751.625 49.144C751.273 49.8053 750.782 50.3227 750.153 50.696C749.534 51.0693 748.83 51.256 748.041 51.256ZM745.689 46.136H750.185C750.142 45.592 749.918 45.144 749.513 44.792C749.118 44.4293 748.585 44.248 747.913 44.248C747.358 44.248 746.878 44.4187 746.473 44.76C746.078 45.1013 745.817 45.56 745.689 46.136ZM759.177 48.824C759.177 49.5067 758.879 50.0827 758.281 50.552C757.684 51.0213 756.932 51.256 756.025 51.256C755.236 51.256 754.543 51.0533 753.945 50.648C753.348 50.232 752.921 49.688 752.665 49.016L753.977 48.456C754.169 48.9253 754.447 49.2933 754.809 49.56C755.183 49.816 755.588 49.944 756.025 49.944C756.495 49.944 756.884 49.8427 757.193 49.64C757.513 49.4373 757.673 49.1973 757.673 48.92C757.673 48.4187 757.289 48.0507 756.521 47.816L755.177 47.48C753.652 47.096 752.889 46.36 752.889 45.272C752.889 44.5573 753.177 43.9867 753.753 43.56C754.34 43.1227 755.087 42.904 755.993 42.904C756.687 42.904 757.311 43.0693 757.865 43.4C758.431 43.7307 758.825 44.1733 759.049 44.728L757.737 45.272C757.588 44.9413 757.343 44.6853 757.001 44.504C756.671 44.312 756.297 44.216 755.881 44.216C755.497 44.216 755.151 44.312 754.841 44.504C754.543 44.696 754.393 44.9307 754.393 45.208C754.393 45.656 754.815 45.976 755.657 46.168L756.841 46.472C758.399 46.856 759.177 47.64 759.177 48.824ZM762.284 40.456C762.284 40.744 762.183 40.9893 761.98 41.192C761.778 41.3947 761.532 41.496 761.244 41.496C760.956 41.496 760.711 41.3947 760.508 41.192C760.306 40.9893 760.204 40.744 760.204 40.456C760.204 40.168 760.306 39.9227 760.508 39.72C760.711 39.5173 760.956 39.416 761.244 39.416C761.532 39.416 761.778 39.5173 761.98 39.72C762.183 39.9227 762.284 40.168 762.284 40.456ZM761.98 43.16V51H760.508V43.16H761.98ZM767.338 49.912C768.063 49.912 768.655 49.6507 769.114 49.128C769.594 48.6053 769.834 47.9227 769.834 47.08C769.834 46.2587 769.594 45.5813 769.114 45.048C768.645 44.5147 768.053 44.248 767.338 44.248C766.634 44.248 766.042 44.5147 765.562 45.048C765.082 45.5813 764.842 46.2587 764.842 47.08C764.842 47.912 765.082 48.5893 765.562 49.112C766.042 49.6453 766.634 49.912 767.338 49.912ZM767.29 54.712C766.853 54.712 766.442 54.6533 766.058 54.536C765.674 54.4293 765.322 54.2747 765.002 54.072C764.693 53.8693 764.426 53.6293 764.202 53.352C763.978 53.0747 763.807 52.7653 763.69 52.424L765.082 51.848C765.242 52.3067 765.519 52.6747 765.914 52.952C766.309 53.2293 766.767 53.368 767.29 53.368C768.09 53.368 768.714 53.128 769.162 52.648C769.61 52.168 769.834 51.5067 769.834 50.664V49.912H769.77C769.493 50.328 769.114 50.6587 768.634 50.904C768.165 51.1387 767.653 51.256 767.098 51.256C766.074 51.256 765.194 50.856 764.458 50.056C763.733 49.2347 763.37 48.2427 763.37 47.08C763.37 45.9173 763.733 44.9307 764.458 44.12C765.194 43.3093 766.074 42.904 767.098 42.904C767.653 42.904 768.165 43.0267 768.634 43.272C769.114 43.5067 769.493 43.832 769.77 44.248H769.834V43.16H771.242V50.664C771.242 51.9227 770.885 52.9093 770.17 53.624C769.445 54.3493 768.485 54.712 767.29 54.712ZM773.037 43.16H774.445V44.248H774.509C774.733 43.864 775.074 43.544 775.533 43.288C776.002 43.032 776.487 42.904 776.989 42.904C777.949 42.904 778.685 43.1813 779.197 43.736C779.719 44.28 779.981 45.0587 779.981 46.072V51H778.509V46.168C778.477 44.888 777.831 44.248 776.573 44.248C775.986 44.248 775.495 44.488 775.101 44.968C774.706 45.4373 774.509 46.0027 774.509 46.664V51H773.037V43.16ZM782.205 52.792L781.517 52.344L782.381 51C782.157 50.9573 781.965 50.8453 781.805 50.664C781.655 50.4827 781.581 50.264 781.581 50.008C781.581 49.6987 781.687 49.4427 781.901 49.24C782.114 49.0267 782.37 48.92 782.669 48.92C782.978 48.92 783.234 49.0267 783.437 49.24C783.65 49.4427 783.757 49.6987 783.757 50.008C783.757 50.296 783.65 50.6107 783.437 50.952L782.205 52.792ZM790.671 51H789.199V39.544H790.671L794.655 46.52H794.719L798.703 39.544H800.175V51H798.703V44.2L798.767 42.28H798.703L795.119 48.568H794.255L790.671 42.28H790.607L790.671 44.2V51ZM805.744 51.256C804.592 51.256 803.643 50.8613 802.896 50.072C802.149 49.2827 801.776 48.2853 801.776 47.08C801.776 45.8853 802.139 44.8933 802.864 44.104C803.589 43.304 804.517 42.904 805.648 42.904C806.811 42.904 807.733 43.2827 808.416 44.04C809.109 44.7867 809.456 45.8373 809.456 47.192L809.44 47.352H803.28C803.301 48.12 803.557 48.7387 804.048 49.208C804.539 49.6773 805.125 49.912 805.808 49.912C806.747 49.912 807.483 49.4427 808.016 48.504L809.328 49.144C808.976 49.8053 808.485 50.3227 807.856 50.696C807.237 51.0693 806.533 51.256 805.744 51.256ZM803.392 46.136H807.888C807.845 45.592 807.621 45.144 807.216 44.792C806.821 44.4293 806.288 44.248 805.616 44.248C805.061 44.248 804.581 44.4187 804.176 44.76C803.781 45.1013 803.52 45.56 803.392 46.136ZM812.274 51H810.802V43.16H812.21V44.248H812.274C812.498 43.864 812.84 43.544 813.298 43.288C813.768 43.032 814.232 42.904 814.69 42.904C815.266 42.904 815.773 43.0373 816.21 43.304C816.648 43.5707 816.968 43.9387 817.17 44.408C817.821 43.4053 818.722 42.904 819.874 42.904C820.781 42.904 821.48 43.1813 821.97 43.736C822.461 44.2907 822.706 45.08 822.706 46.104V51H821.234V46.328C821.234 45.592 821.101 45.064 820.834 44.744C820.568 44.4133 820.12 44.248 819.49 44.248C818.925 44.248 818.45 44.488 818.066 44.968C817.682 45.448 817.49 46.0133 817.49 46.664V51H816.018V46.328C816.018 45.592 815.885 45.064 815.618 44.744C815.352 44.4133 814.904 44.248 814.274 44.248C813.709 44.248 813.234 44.488 812.85 44.968C812.466 45.448 812.274 46.0133 812.274 46.664V51ZM828.571 51.256C827.995 51.256 827.467 51.1333 826.987 50.888C826.518 50.6427 826.155 50.3173 825.899 49.912H825.835V51H824.427V39.544H825.899V43.16L825.835 44.248H825.899C826.155 43.8427 826.518 43.5173 826.987 43.272C827.467 43.0267 827.995 42.904 828.571 42.904C829.606 42.904 830.481 43.3093 831.195 44.12C831.931 44.9413 832.299 45.928 832.299 47.08C832.299 48.2427 831.931 49.2293 831.195 50.04C830.481 50.8507 829.606 51.256 828.571 51.256ZM828.331 49.912C829.035 49.912 829.627 49.6453 830.107 49.112C830.587 48.5893 830.827 47.912 830.827 47.08C830.827 46.2587 830.587 45.5813 830.107 45.048C829.627 44.5147 829.035 44.248 828.331 44.248C827.617 44.248 827.019 44.5147 826.539 45.048C826.07 45.5813 825.835 46.2587 825.835 47.08C825.835 47.912 826.07 48.5947 826.539 49.128C827.019 49.6507 827.617 49.912 828.331 49.912ZM837.166 51.256C836.014 51.256 835.065 50.8613 834.318 50.072C833.571 49.2827 833.198 48.2853 833.198 47.08C833.198 45.8853 833.561 44.8933 834.286 44.104C835.011 43.304 835.939 42.904 837.07 42.904C838.233 42.904 839.155 43.2827 839.838 44.04C840.531 44.7867 840.878 45.8373 840.878 47.192L840.862 47.352H834.702C834.723 48.12 834.979 48.7387 835.47 49.208C835.961 49.6773 836.547 49.912 837.23 49.912C838.169 49.912 838.905 49.4427 839.438 48.504L840.75 49.144C840.398 49.8053 839.907 50.3227 839.278 50.696C838.659 51.0693 837.955 51.256 837.166 51.256ZM834.814 46.136H839.31C839.267 45.592 839.043 45.144 838.638 44.792C838.243 44.4293 837.71 44.248 837.038 44.248C836.483 44.248 836.003 44.4187 835.598 44.76C835.203 45.1013 834.942 45.56 834.814 46.136ZM843.696 51H842.224V43.16H843.632V44.44H843.696C843.845 44.024 844.149 43.672 844.608 43.384C845.077 43.0853 845.536 42.936 845.984 42.936C846.411 42.936 846.773 43 847.072 43.128L846.624 44.552C846.443 44.4773 846.155 44.44 845.76 44.44C845.205 44.44 844.72 44.664 844.304 45.112C843.899 45.56 843.696 46.0827 843.696 46.68V51ZM682.312 60.352L680.44 65.52H684.248L682.376 60.352H682.312ZM678.824 70H677.192L681.512 58.544H683.176L687.496 70H685.864L684.76 66.896H679.944L678.824 70ZM695.057 70H693.649V68.912H693.585C693.361 69.296 693.015 69.616 692.545 69.872C692.087 70.128 691.607 70.256 691.105 70.256C690.145 70.256 689.404 69.984 688.881 69.44C688.369 68.8853 688.113 68.1013 688.113 67.088V62.16H689.585V66.992C689.617 68.272 690.263 68.912 691.521 68.912C692.108 68.912 692.599 68.6773 692.993 68.208C693.388 67.728 693.585 67.1573 693.585 66.496V62.16H695.057V70ZM700.291 68.912C701.016 68.912 701.608 68.6507 702.067 68.128C702.547 67.6053 702.787 66.9227 702.787 66.08C702.787 65.2587 702.547 64.5813 702.067 64.048C701.598 63.5147 701.006 63.248 700.291 63.248C699.587 63.248 698.995 63.5147 698.515 64.048C698.035 64.5813 697.795 65.2587 697.795 66.08C697.795 66.912 698.035 67.5893 698.515 68.112C698.995 68.6453 699.587 68.912 700.291 68.912ZM700.243 73.712C699.806 73.712 699.395 73.6533 699.011 73.536C698.627 73.4293 698.275 73.2747 697.955 73.072C697.646 72.8693 697.379 72.6293 697.155 72.352C696.931 72.0747 696.76 71.7653 696.643 71.424L698.035 70.848C698.195 71.3067 698.472 71.6747 698.867 71.952C699.262 72.2293 699.72 72.368 700.243 72.368C701.043 72.368 701.667 72.128 702.115 71.648C702.563 71.168 702.787 70.5067 702.787 69.664V68.912H702.723C702.446 69.328 702.067 69.6587 701.587 69.904C701.118 70.1387 700.606 70.256 700.051 70.256C699.027 70.256 698.147 69.856 697.411 69.056C696.686 68.2347 696.323 67.2427 696.323 66.08C696.323 64.9173 696.686 63.9307 697.411 63.12C698.147 62.3093 699.027 61.904 700.051 61.904C700.606 61.904 701.118 62.0267 701.587 62.272C702.067 62.5067 702.446 62.832 702.723 63.248H702.787V62.16H704.195V69.664C704.195 70.9227 703.838 71.9093 703.123 72.624C702.398 73.3493 701.438 73.712 700.243 73.712ZM716.225 68.592V70H709.249V68.528L712.081 65.664C713.031 64.6933 713.687 63.968 714.049 63.488C714.412 62.9973 714.593 62.4853 714.593 61.952C714.593 61.472 714.407 61.0613 714.033 60.72C713.66 60.3787 713.18 60.208 712.593 60.208C712.092 60.208 711.66 60.3573 711.297 60.656C710.935 60.9547 710.7 61.3173 710.593 61.744L709.249 61.2C709.463 60.528 709.873 59.9627 710.481 59.504C711.089 59.0347 711.804 58.8 712.625 58.8C713.617 58.8 714.444 59.104 715.105 59.712C715.767 60.32 716.097 61.0667 716.097 61.952C716.097 63.008 715.516 64.1493 714.353 65.376L711.153 68.592H716.225ZM724.234 67.696V70H722.762V67.696H717.562V66.576L722.634 59.056H724.234V66.32H725.642V67.696H724.234ZM719.226 66.32H722.762V61.216H722.698L719.226 66.32Z" fill="white"/>
<path d="M997.544 51.256C995.848 51.256 994.429 50.6853 993.288 49.544C992.157 48.4027 991.592 46.9787 991.592 45.272C991.592 43.5653 992.157 42.1467 993.288 41.016C994.419 39.864 995.837 39.288 997.544 39.288C999.272 39.288 1000.67 39.912 1001.75 41.16L1000.7 42.184C999.875 41.192 998.824 40.696 997.544 40.696C996.275 40.696 995.213 41.1227 994.36 41.976C993.517 42.8187 993.096 43.9173 993.096 45.272C993.096 46.6267 993.517 47.7253 994.36 48.568C995.213 49.4213 996.275 49.848 997.544 49.848C998.877 49.848 1000.03 49.288 1001.02 48.168L1002.09 49.208C1001.54 49.8587 1000.88 50.3653 1000.09 50.728C999.299 51.08 998.451 51.256 997.544 51.256ZM1004.87 51H1003.4V43.16H1004.8V44.44H1004.87C1005.02 44.024 1005.32 43.672 1005.78 43.384C1006.25 43.0853 1006.71 42.936 1007.16 42.936C1007.58 42.936 1007.95 43 1008.24 43.128L1007.8 44.552C1007.61 44.4773 1007.33 44.44 1006.93 44.44C1006.38 44.44 1005.89 44.664 1005.48 45.112C1005.07 45.56 1004.87 46.0827 1004.87 46.68V51ZM1012.24 51.256C1011.09 51.256 1010.14 50.8613 1009.4 50.072C1008.65 49.2827 1008.28 48.2853 1008.28 47.08C1008.28 45.8853 1008.64 44.8933 1009.36 44.104C1010.09 43.304 1011.02 42.904 1012.15 42.904C1013.31 42.904 1014.23 43.2827 1014.92 44.04C1015.61 44.7867 1015.96 45.8373 1015.96 47.192L1015.94 47.352H1009.78C1009.8 48.12 1010.06 48.7387 1010.55 49.208C1011.04 49.6773 1011.63 49.912 1012.31 49.912C1013.25 49.912 1013.98 49.4427 1014.52 48.504L1015.83 49.144C1015.48 49.8053 1014.99 50.3227 1014.36 50.696C1013.74 51.0693 1013.03 51.256 1012.24 51.256ZM1009.89 46.136H1014.39C1014.35 45.592 1014.12 45.144 1013.72 44.792C1013.32 44.4293 1012.79 44.248 1012.12 44.248C1011.56 44.248 1011.08 44.4187 1010.68 44.76C1010.28 45.1013 1010.02 45.56 1009.89 46.136ZM1018.45 48.6C1018.45 48.984 1018.61 49.304 1018.93 49.56C1019.26 49.816 1019.65 49.944 1020.08 49.944C1020.7 49.944 1021.25 49.7147 1021.73 49.256C1022.22 48.7973 1022.47 48.2587 1022.47 47.64C1022.01 47.2773 1021.37 47.096 1020.55 47.096C1019.95 47.096 1019.45 47.24 1019.04 47.528C1018.65 47.816 1018.45 48.1733 1018.45 48.6ZM1020.36 42.904C1021.44 42.904 1022.3 43.1973 1022.93 43.784C1023.56 44.36 1023.88 45.1547 1023.88 46.168V51H1022.47V49.912H1022.4C1021.8 50.808 1020.99 51.256 1019.97 51.256C1019.11 51.256 1018.38 51 1017.8 50.488C1017.22 49.976 1016.93 49.336 1016.93 48.568C1016.93 47.7573 1017.24 47.112 1017.84 46.632C1018.46 46.152 1019.28 45.912 1020.31 45.912C1021.18 45.912 1021.9 46.072 1022.47 46.392V46.056C1022.47 45.544 1022.27 45.112 1021.86 44.76C1021.46 44.3973 1020.98 44.216 1020.44 44.216C1019.62 44.216 1018.96 44.5627 1018.48 45.256L1017.19 44.44C1017.9 43.416 1018.96 42.904 1020.36 42.904ZM1028.48 51.128C1027.84 51.128 1027.31 50.9307 1026.88 50.536C1026.47 50.1413 1026.26 49.592 1026.24 48.888V44.504H1024.87V43.16H1026.24V40.76H1027.72V43.16H1029.64V44.504H1027.72V48.408C1027.72 48.9307 1027.82 49.288 1028.02 49.48C1028.22 49.6613 1028.45 49.752 1028.71 49.752C1028.83 49.752 1028.94 49.7413 1029.04 49.72C1029.16 49.688 1029.27 49.6507 1029.36 49.608L1029.83 50.92C1029.44 51.0587 1029 51.128 1028.48 51.128ZM1033.02 40.456C1033.02 40.744 1032.92 40.9893 1032.71 41.192C1032.51 41.3947 1032.27 41.496 1031.98 41.496C1031.69 41.496 1031.45 41.3947 1031.24 41.192C1031.04 40.9893 1030.94 40.744 1030.94 40.456C1030.94 40.168 1031.04 39.9227 1031.24 39.72C1031.45 39.5173 1031.69 39.416 1031.98 39.416C1032.27 39.416 1032.51 39.5173 1032.71 39.72C1032.92 39.9227 1033.02 40.168 1033.02 40.456ZM1032.71 43.16V51H1031.24V43.16H1032.71ZM1038.44 51H1036.97L1033.8 43.16H1035.4L1037.7 49.24H1037.73L1040.07 43.16H1041.64L1038.44 51ZM1045.88 51.256C1044.73 51.256 1043.78 50.8613 1043.04 50.072C1042.29 49.2827 1041.92 48.2853 1041.92 47.08C1041.92 45.8853 1042.28 44.8933 1043 44.104C1043.73 43.304 1044.66 42.904 1045.79 42.904C1046.95 42.904 1047.87 43.2827 1048.56 44.04C1049.25 44.7867 1049.6 45.8373 1049.6 47.192L1049.58 47.352H1043.42C1043.44 48.12 1043.7 48.7387 1044.19 49.208C1044.68 49.6773 1045.27 49.912 1045.95 49.912C1046.89 49.912 1047.62 49.4427 1048.16 48.504L1049.47 49.144C1049.12 49.8053 1048.63 50.3227 1048 50.696C1047.38 51.0693 1046.67 51.256 1045.88 51.256ZM1043.53 46.136H1048.03C1047.99 45.592 1047.76 45.144 1047.36 44.792C1046.96 44.4293 1046.43 44.248 1045.76 44.248C1045.2 44.248 1044.72 44.4187 1044.32 44.76C1043.92 45.1013 1043.66 45.56 1043.53 46.136ZM1061.15 51H1054.71V39.544H1056.19V49.592H1061.15V51ZM1065.95 51.256C1064.8 51.256 1063.85 50.8613 1063.1 50.072C1062.35 49.2827 1061.98 48.2853 1061.98 47.08C1061.98 45.8853 1062.34 44.8933 1063.07 44.104C1063.79 43.304 1064.72 42.904 1065.85 42.904C1067.01 42.904 1067.94 43.2827 1068.62 44.04C1069.31 44.7867 1069.66 45.8373 1069.66 47.192L1069.64 47.352H1063.48C1063.5 48.12 1063.76 48.7387 1064.25 49.208C1064.74 49.6773 1065.33 49.912 1066.01 49.912C1066.95 49.912 1067.69 49.4427 1068.22 48.504L1069.53 49.144C1069.18 49.8053 1068.69 50.3227 1068.06 50.696C1067.44 51.0693 1066.74 51.256 1065.95 51.256ZM1063.6 46.136H1068.09C1068.05 45.592 1067.82 45.144 1067.42 44.792C1067.02 44.4293 1066.49 44.248 1065.82 44.248C1065.26 44.248 1064.78 44.4187 1064.38 44.76C1063.98 45.1013 1063.72 45.56 1063.6 46.136ZM1072.16 48.6C1072.16 48.984 1072.32 49.304 1072.64 49.56C1072.97 49.816 1073.35 49.944 1073.79 49.944C1074.41 49.944 1074.96 49.7147 1075.44 49.256C1075.93 48.7973 1076.17 48.2587 1076.17 47.64C1075.71 47.2773 1075.07 47.096 1074.25 47.096C1073.65 47.096 1073.15 47.24 1072.75 47.528C1072.35 47.816 1072.16 48.1733 1072.16 48.6ZM1074.06 42.904C1075.15 42.904 1076.01 43.1973 1076.64 43.784C1077.26 44.36 1077.58 45.1547 1077.58 46.168V51H1076.17V49.912H1076.11C1075.5 50.808 1074.69 51.256 1073.68 51.256C1072.81 51.256 1072.09 51 1071.5 50.488C1070.92 49.976 1070.64 49.336 1070.64 48.568C1070.64 47.7573 1070.94 47.112 1071.55 46.632C1072.17 46.152 1072.99 45.912 1074.01 45.912C1074.89 45.912 1075.61 46.072 1076.17 46.392V46.056C1076.17 45.544 1075.97 45.112 1075.56 44.76C1075.16 44.3973 1074.68 44.216 1074.14 44.216C1073.32 44.216 1072.67 44.5627 1072.19 45.256L1070.89 44.44C1071.61 43.416 1072.66 42.904 1074.06 42.904ZM1082.68 49.912C1083.41 49.912 1084 49.6507 1084.46 49.128C1084.94 48.6053 1085.18 47.9227 1085.18 47.08C1085.18 46.2587 1084.94 45.5813 1084.46 45.048C1083.99 44.5147 1083.4 44.248 1082.68 44.248C1081.98 44.248 1081.39 44.5147 1080.91 45.048C1080.43 45.5813 1080.19 46.2587 1080.19 47.08C1080.19 47.912 1080.43 48.5893 1080.91 49.112C1081.39 49.6453 1081.98 49.912 1082.68 49.912ZM1082.44 51.256C1081.42 51.256 1080.54 50.8507 1079.8 50.04C1079.08 49.2187 1078.71 48.232 1078.71 47.08C1078.71 45.928 1079.08 44.9413 1079.8 44.12C1080.54 43.3093 1081.42 42.904 1082.44 42.904C1083.02 42.904 1083.54 43.0267 1084.01 43.272C1084.49 43.5173 1084.86 43.8427 1085.11 44.248H1085.18L1085.11 43.16V39.544H1086.59V51H1085.18V49.912H1085.11C1084.86 50.3173 1084.49 50.6427 1084.01 50.888C1083.54 51.1333 1083.02 51.256 1082.44 51.256ZM999.224 66.944C999.224 67.9467 998.856 68.752 998.12 69.36C997.373 69.9573 996.467 70.256 995.4 70.256C994.451 70.256 993.613 69.9787 992.888 69.424C992.163 68.8693 991.661 68.112 991.384 67.152L992.792 66.576C992.888 66.9173 993.021 67.2267 993.192 67.504C993.363 67.7813 993.56 68.0213 993.784 68.224C994.019 68.416 994.275 68.5707 994.552 68.688C994.829 68.7947 995.123 68.848 995.432 68.848C996.104 68.848 996.653 68.6773 997.08 68.336C997.507 67.984 997.72 67.52 997.72 66.944C997.72 66.464 997.544 66.0533 997.192 65.712C996.861 65.3813 996.243 65.0613 995.336 64.752C994.419 64.4213 993.848 64.1973 993.624 64.08C992.408 63.4613 991.8 62.5493 991.8 61.344C991.8 60.5013 992.136 59.7813 992.808 59.184C993.491 58.5867 994.328 58.288 995.32 58.288C996.195 58.288 996.952 58.512 997.592 58.96C998.232 59.3973 998.659 59.9467 998.872 60.608L997.496 61.184C997.368 60.7573 997.112 60.4053 996.728 60.128C996.355 59.84 995.896 59.696 995.352 59.696C994.776 59.696 994.291 59.856 993.896 60.176C993.501 60.4747 993.304 60.864 993.304 61.344C993.304 61.7387 993.459 62.08 993.768 62.368C994.109 62.656 994.851 62.9973 995.992 63.392C997.155 63.7867 997.981 64.272 998.472 64.848C998.973 65.4133 999.224 66.112 999.224 66.944ZM1004.26 70.256C1003.11 70.256 1002.16 69.8613 1001.41 69.072C1000.67 68.2827 1000.29 67.2853 1000.29 66.08C1000.29 64.8853 1000.65 63.8933 1001.38 63.104C1002.11 62.304 1003.03 61.904 1004.16 61.904C1005.33 61.904 1006.25 62.2827 1006.93 63.04C1007.63 63.7867 1007.97 64.8373 1007.97 66.192L1007.96 66.352H1001.8C1001.82 67.12 1002.07 67.7387 1002.56 68.208C1003.05 68.6773 1003.64 68.912 1004.32 68.912C1005.26 68.912 1006 68.4427 1006.53 67.504L1007.84 68.144C1007.49 68.8053 1007 69.3227 1006.37 69.696C1005.75 70.0693 1005.05 70.256 1004.26 70.256ZM1001.91 65.136H1006.4C1006.36 64.592 1006.14 64.144 1005.73 63.792C1005.34 63.4293 1004.8 63.248 1004.13 63.248C1003.58 63.248 1003.1 63.4187 1002.69 63.76C1002.3 64.1013 1002.04 64.56 1001.91 65.136ZM1013.16 68.912C1013.86 68.912 1014.45 68.6453 1014.93 68.112C1015.41 67.5893 1015.65 66.912 1015.65 66.08C1015.65 65.2587 1015.41 64.5813 1014.93 64.048C1014.45 63.5147 1013.86 63.248 1013.16 63.248C1012.44 63.248 1011.85 63.5147 1011.37 64.048C1010.9 64.5813 1010.66 65.2587 1010.66 66.08C1010.66 66.912 1010.9 67.5947 1011.37 68.128C1011.85 68.6507 1012.44 68.912 1013.16 68.912ZM1013.4 70.256C1012.82 70.256 1012.29 70.1333 1011.81 69.888C1011.34 69.6427 1010.98 69.3173 1010.73 68.912H1010.66L1010.73 70V73.456H1009.25V62.16H1010.66V63.248H1010.73C1010.98 62.8427 1011.34 62.5173 1011.81 62.272C1012.29 62.0267 1012.82 61.904 1013.4 61.904C1014.43 61.904 1015.31 62.3093 1016.02 63.12C1016.76 63.9413 1017.13 64.928 1017.13 66.08C1017.13 67.2427 1016.76 68.2293 1016.02 69.04C1015.31 69.8507 1014.43 70.256 1013.4 70.256ZM1028.71 68.592V70H1021.73V68.528L1024.57 65.664C1025.52 64.6933 1026.17 63.968 1026.53 63.488C1026.9 62.9973 1027.08 62.4853 1027.08 61.952C1027.08 61.472 1026.89 61.0613 1026.52 60.72C1026.14 60.3787 1025.66 60.208 1025.08 60.208C1024.58 60.208 1024.14 60.3573 1023.78 60.656C1023.42 60.9547 1023.18 61.3173 1023.08 61.744L1021.73 61.2C1021.95 60.528 1022.36 59.9627 1022.97 59.504C1023.57 59.0347 1024.29 58.8 1025.11 58.8C1026.1 58.8 1026.93 59.104 1027.59 59.712C1028.25 60.32 1028.58 61.0667 1028.58 61.952C1028.58 63.008 1028 64.1493 1026.84 65.376L1023.64 68.592H1028.71ZM1036.72 67.696V70H1035.25V67.696H1030.05V66.576L1035.12 59.056H1036.72V66.32H1038.13V67.696H1036.72ZM1031.71 66.32H1035.25V61.216H1035.18L1031.71 66.32Z" fill="#A6FF00"/>
<line x1="5.5" y1="4.5" x2="990.5" y2="4.5" stroke="white" stroke-linecap="round"/>
<circle cx="4.5" cy="4.5" r="4.5" fill="#A6FF00"/>
<circle cx="4.5" cy="4.5" r="4.5" fill="#A6FF00"/>
<circle cx="4.5" cy="4.5" r="4.5" fill="#A6FF00"/>
<circle cx="4.5" cy="4.5" r="4.5" fill="#A6FF00"/>
<circle cx="288.5" cy="4.5" r="4.5" fill="#A6FF00"/>
<circle cx="288.5" cy="4.5" r="4.5" fill="#A6FF00"/>
<circle cx="288.5" cy="4.5" r="4.5" fill="#A6FF00"/>
<circle cx="288.5" cy="4.5" r="4.5" fill="#A6FF00"/>
<circle cx="672.5" cy="4.5" r="4.5" fill="#A6FF00"/>
<circle cx="672.5" cy="4.5" r="4.5" fill="#A6FF00"/>
<circle cx="672.5" cy="4.5" r="4.5" fill="#A6FF00"/>
<circle cx="672.5" cy="4.5" r="4.5" fill="#A6FF00"/>
<circle cx="990.5" cy="4.5" r="4.5" fill="#A6FF00"/>
<circle cx="990.5" cy="4.5" r="4.5" fill="#A6FF00"/>
<circle cx="990.5" cy="4.5" r="4.5" fill="#A6FF00"/>
<circle cx="990.5" cy="4.5" r="4.5" fill="#A6FF00"/>
</svg>
